<svg xmlns="http://www.w3.org/2000/svg" xmlns:xlink="http://www.w3.org/1999/xlink" width="28" height="30" viewBox="0 0 28 30"><defs><path id="qcd6a" d="M1495.65 7535.35c-.53-2 .66-4.05 2.66-4.59l4.89-1.31-1.58-5.87a3.68 3.68 0 0 1 2.6-4.5h.02a3.68 3.68 0 0 1 4.5 2.6l1.58 5.86 4.89-1.31a3.75 3.75 0 1 1 1.94 7.25l-4.89 1.3 1.57 5.87a3.68 3.68 0 0 1-2.6 4.5h-.02a3.68 3.68 0 0 1-4.5-2.59l-1.57-5.87-4.9 1.31c-2 .54-4.05-.65-4.59-2.65z"/></defs><g><g opacity=".4" transform="translate(-1494 -7517)"><use fill="#00c3e2" xlink:href="#qcd6a"/></g></g></svg>